<svg width="30" height="31" viewBox="0 0 30 31" fill="none" xmlns="http://www.w3.org/2000/svg">
<path d="M17.5 15.3799L13.125 17.8799V12.8799L17.5 15.3799Z" fill="white" stroke="white" stroke-width="1.875" stroke-linecap="round" stroke-linejoin="round"/>
<path d="M2.5 16.2636V14.4949C2.5 10.8761 2.5 9.06613 3.63125 7.90238C4.76375 6.73738 6.54625 6.68738 10.11 6.58613C11.7975 6.53863 13.5225 6.50488 15 6.50488C16.4762 6.50488 18.2012 6.53863 19.89 6.58613C23.4537 6.68738 25.2362 6.73738 26.3675 7.90238C27.5 9.06613 27.5 10.8774 27.5 14.4949V16.2636C27.5 19.8836 27.5 21.6924 26.3687 22.8574C25.2362 24.0211 23.455 24.0724 19.89 24.1724C18.2025 24.2211 16.4775 24.2549 15 24.2549C13.3697 24.25 11.7395 24.2225 10.11 24.1724C6.54625 24.0724 4.76375 24.0224 3.63125 22.8574C2.5 21.6924 2.5 19.8824 2.5 16.2649V16.2636Z" stroke="white" stroke-width="1.875"/>
</svg>
